<?xml version="1.0" encoding="UTF-8" standalone="no"?>
<!-- Generator: Gravit.io -->

<svg
   xmlns:dc="http://purl.org/dc/elements/1.1/"
   xmlns:cc="http://creativecommons.org/ns#"
   xmlns:rdf="http://www.w3.org/1999/02/22-rdf-syntax-ns#"
   xmlns:svg="http://www.w3.org/2000/svg"
   xmlns="http://www.w3.org/2000/svg"
   xmlns:sodipodi="http://sodipodi.sourceforge.net/DTD/sodipodi-0.dtd"
   xmlns:inkscape="http://www.inkscape.org/namespaces/inkscape"
   style="isolation:isolate"
   viewBox="0 0 798 573"
   width="798pt"
   height="573pt"
   id="svg3471"
   version="1.1"
   inkscape:version="0.91 r13725"
   sodipodi:docname="mapaVen.svg">
  <metadata
     id="metadata3534">
    <rdf:RDF>
      <cc:Work
         rdf:about="">
        <dc:format>image/svg+xml</dc:format>
        <dc:type
           rdf:resource="http://purl.org/dc/dcmitype/StillImage" />
      </cc:Work>
    </rdf:RDF>
  </metadata>
  <sodipodi:namedview
     pagecolor="#ffffff"
     bordercolor="#666666"
     borderopacity="1"
     objecttolerance="10"
     gridtolerance="10"
     guidetolerance="10"
     inkscape:pageopacity="0"
     inkscape:pageshadow="2"
     inkscape:window-width="1366"
     inkscape:window-height="703"
     id="namedview3532"
     showgrid="false"
     inkscape:zoom="0.93194946"
     inkscape:cx="500.50166"
     inkscape:cy="443.96657"
     inkscape:window-x="0"
     inkscape:window-y="0"
     inkscape:window-maximized="1"
     inkscape:current-layer="g3478" />
  <defs
     id="defs3473">
    <clipPath
       id="_clipPath_6ydCB1GpHdZcKYqpYWLpKED7ZBVrHXuI">
      <rect
         width="798"
         height="573"
         id="rect3476" />
    </clipPath>
  </defs>
  <g
     clip-path="url(#_clipPath_6ydCB1GpHdZcKYqpYWLpKED7ZBVrHXuI)"
     id="g3478">
    <path
       d=" M 391.25 113.75 L 381.667 118 L 383 129.333 L 385.5 131 L 388.375 131.75 L 392.877 131.699 L 395.75 130.75 L 398.125 132.5 L 405.667 136.667 L 403.333 142.667 L 404 146 L 408.667 150.333 L 420 154.333 L 420.375 156.875 L 419.333 159 L 421.333 163.667 L 423.667 166.333 L 424 168 L 417.75 171.25 L 414.5 169.875 L 410.75 171 L 407.333 173.333 L 406.375 177.375 L 405.667 186.333 L 401.25 191.75 L 398.25 196.625 L 395.5 201.375 L 391 212.667 L 402.75 213.625 L 408.333 215 L 421.667 223.333 L 425.625 223.625 L 434.125 219.625 L 438.125 221.25 L 441 222.125 L 443.667 220.667 L 444.75 217.125 C 444.99 215.922 443.252 214.15 442.125 211.75 C 441.733 210.915 442.81 210.107 442.25 209.125 L 448.375 206.25 L 456 203.333 L 460.625 206.25 L 464.5 208.25 L 467.625 209.625 L 471 209.667 L 478.667 201.667 L 489.312 198.299 L 494.875 197.125 L 511.333 191.333 L 520.739 193.424 L 523.75 193.625 L 525.309 191.827 L 530 186.667 L 525.625 183.75 L 522.5 180.875 L 518.625 180.333 L 513.333 180.333 C 513.333 179.452 512.75 177.757 512.75 176.75 C 512.75 175.359 512.983 174.149 513.155 172.738 C 513.254 171.918 512.75 171.53 512.75 170.5 L 510.763 170.257 L 503.333 171 L 498.75 169.25 L 496 167 L 493.527 162.7 L 492.875 159.875 L 491.125 156.875 L 488.125 154.5 L 481.375 151.125 L 478 150.125 L 472.375 149.625 C 470.072 148.993 467.999 146.489 466.875 144 L 466 140.25 L 466.875 136.375 L 468.5 131.625 C 468.155 130.769 468.663 129.644 468.355 128.835 C 465.124 120.357 463.832 114.544 463 112.5 L 463.667 108.333 L 457.689 109.891 L 454 110.375 C 448.267 108.627 445.074 107.546 443 105.125 L 441 102.333 L 438.428 95.904 L 437.375 94.375 L 436.57 95.403 L 432.31 100.851 L 429.375 104.125 C 427.906 104.303 426.825 104.921 425.75 105.125 C 423.562 105.54 422.269 105.556 420.875 105.875 L 415.625 106.125 C 413.333 106.708 409.732 106.51 407.375 105.75 L 401.25 104 C 400.408 105.006 400.181 106.014 399.25 107.125 C 398.319 108.236 396.685 109.45 395.667 110.667 L 391.25 113.75 Z "
       fill="rgb(189,192,187)"
       vector-effect="non-scaling-stroke"
       stroke-width="2"
       stroke="rgb(255,255,255)"
       stroke-linejoin="miter"
       stroke-linecap="square"
       stroke-miterlimit="3"
       id="anzoategui"
       inkscape:label="#anzoategui" />
    <path
       d=" M 442.25 63 L 443.25 65.625 L 444.438 67.688 L 446.25 69.5 L 448.313 70.5 L 450 70.813 L 451.938 70.375 L 453.875 69.5 L 455.813 69.063 L 457.688 69.313 L 459.25 70.313 L 461 71 L 463 71.375 L 464.75 71.313 L 466.438 71 L 467.938 70.625 L 469.625 69.438 L 471.313 68.313 L 472.625 66.688 L 473.313 64.813 L 473.813 62.5 L 474.188 60.688 L 474 58.313 L 473.75 56.75 L 472.938 55.688 L 471.313 54.813 L 469.688 54.125 L 467.875 54.313 L 466.688 55.063 L 465.25 56 L 463.875 57.313 L 463 58.188 L 462.125 59.688 L 461.313 61.375 L 460.5 62.5 L 459.563 63.063 L 458.375 62.563 L 457.563 61.75 L 456.75 60.313 L 456 59.188 L 454.813 58 L 453.438 57.188 L 451.688 56.938 L 450.063 57.438 L 448.5 58.063 L 447.438 58.688 L 446.125 59.688 L 445.063 60.188 L 444.063 60.75 L 443 61.625 L 442.25 63 Z "
       fill="rgb(189,192,187)"
       vector-effect="non-scaling-stroke"
       stroke-width="2"
       stroke="rgb(255,255,255)"
       stroke-linejoin="miter"
       stroke-linecap="square"
       stroke-miterlimit="3"
       id="nueva_esparta" />
    <path
       d=" M 440.375 96.75 L 439.75 98.5 L 440.063 100.625 L 441 102.25 L 443.5 105.25 L 445.605 105.851 L 447.063 106.813 L 449.75 108.75 L 453.5 109.75 L 456.875 109.625 L 460 108.75 L 463.25 108 L 466 107.25 L 470.25 107 L 472.801 106.858 L 475.125 106.5 L 476.625 106 L 478.875 104.563 L 482 101.25 L 484.142 99.537 L 486 98.563 L 488 98.375 L 490.25 98.5 L 494.75 99 L 499.5 99.5 L 504.75 100.5 L 509 103 L 512.75 106 L 517.5 108.25 L 522.25 109.25 L 525 109.25 L 526.75 109.125 L 528.594 108.156 L 530.188 107.063 L 531.642 104.854 L 532.375 102.438 L 532.5 99 L 532.125 96.25 L 530.75 93.25 L 528 90.5 L 526.75 89.313 L 525.25 88.563 C 524.333 88.333 523.427 88.489 522.5 89 L 519 90.25 L 518.125 89.75 L 517.813 89.063 L 518.43 88.365 L 520.25 87 L 522.75 85.25 L 525.563 84.75 L 528.688 84.75 L 533.875 84.688 L 539.063 84.625 L 541.873 84.704 L 544.063 84.5 L 546.563 83.688 L 549.813 82.875 L 553.688 81.375 L 559.25 80.25 L 564 79.313 L 566.474 78.511 L 567.938 77.938 C 568.179 77.548 568.94 77.216 569.095 76.815 C 569.385 76.068 569.523 75.299 569.5 74.5 C 569.417 73.708 569.093 72.843 568.5 71.875 L 567.25 70.938 L 566.25 70.375 L 563.594 70.313 L 561.438 70.375 L 557.375 70.375 L 554.802 70.495 L 552 70.938 L 549.375 71.438 L 547.25 71.375 L 541 70.688 L 535.75 70.5 L 531 70.5 L 526.5 70.75 L 522.313 71.625 L 519.25 72.5 C 517.263 72.437 515.085 72.28 513.438 71.75 L 510.625 71.625 L 508.813 71.344 L 506.813 71.438 L 504.972 72.182 L 501.75 73.5 L 496.875 75.438 L 491.5 76.5 L 487.813 77.188 L 483 77.25 L 478 77.25 L 471 76.5 L 466 76.5 L 460.25 76.25 L 454.75 76.25 L 452.625 76.813 L 450.813 78.688 L 449.625 80 L 449.313 81.313 L 450.063 82.25 L 451.563 82.438 L 453.875 82.75 L 455.625 83.313 L 460.5 84 L 466 84.5 L 469.313 84.563 L 473.125 85.313 L 476.75 87.5 L 474.813 88.125 L 471.375 88.938 L 467.5 89 L 464.495 88.85 L 462 88.438 L 457 86.75 L 453.75 85.75 L 451.75 85.688 L 450.063 86.438 L 448.75 87.75 L 447.5 90.125 L 446.313 91.875 L 443.75 93.25 L 442.375 94.125 L 441.063 95.188 L 440.375 96.75 Z "
       fill="rgb(189,192,187)"
       vector-effect="non-scaling-stroke"
       stroke-width="2"
       stroke="rgb(255,255,255)"
       stroke-linejoin="miter"
       stroke-linecap="square"
       stroke-miterlimit="3"
       id="sucre" />
    <path
       d=" M 464.938 108 L 463 109.333 L 463.063 111.688 L 463.667 114.333 L 465.667 119.667 L 466.875 122.875 L 467.771 124.438 L 468.5 126.125 L 468.833 128.167 L 468.875 130.5 L 467.919 133.266 L 466.667 136.667 L 466.167 139 L 465.938 141.25 L 466.667 143.5 L 467.667 145.667 L 469.313 147.688 L 471.5 149.188 L 474.5 149.833 L 477.333 150.333 L 482.333 151.667 L 485.333 152.833 L 488.188 154.313 L 490.333 156.333 L 492.333 158.667 L 493.375 161.125 L 494.313 164.125 L 495.563 166.063 C 496.328 167.307 497.45 168.761 499.188 169.688 L 501.813 170.688 L 504.333 171 L 507.795 170.453 L 510.25 170.063 L 512 171 L 512.875 171.938 L 512.91 173.835 L 512.333 176.333 L 512.5 178.125 L 513.333 179.333 L 515.375 180.25 L 517.667 180.667 L 520.167 181 L 522.688 181.625 L 524.503 182.558 L 526.667 184 L 528.5 185.75 L 530.563 187.313 L 534.375 187.875 L 538.333 187 L 541.007 185.766 L 542.313 184 L 544.063 181.188 L 546.333 179 L 549.063 176.813 L 552 175 L 555.333 173.333 L 558.625 171.313 L 561.167 168.833 L 563.667 166 L 565.014 163.598 L 565.438 162.125 L 564.683 160.629 C 564.248 160.106 563.628 160.23 563.125 159.625 C 562.874 159.323 562.043 159.37 561.813 158.875 C 561.582 158.38 562.035 156.656 561.75 156.313 L 562.313 154.563 L 561.667 152.667 L 560.167 151.5 L 558.875 150.688 L 557 150.5 L 555.333 150.667 L 553.5 150.833 L 551.938 150.563 L 550.988 148.963 L 549.75 147.063 L 549.563 144.625 L 548.615 141.646 L 547.5 138.875 L 546.377 137.193 L 544.159 134.658 L 543.25 133 L 543.25 130.438 L 544.333 128.667 L 546 126.667 L 547.75 124.438 L 547.892 122.86 L 547.813 121.625 L 547.333 120.5 L 546.667 119.333 L 542.333 115.667 L 541.438 114.563 L 541.25 113.375 L 541.667 112 L 542 106.667 L 541.333 102.667 L 540.544 100.773 L 539.688 99 L 538.313 98.188 L 536.5 97.938 L 534.5 98.188 L 532.667 98.667 L 532.563 101.188 L 532 103.667 L 530.938 105.688 L 529.688 107.375 L 528.313 108.688 L 526.938 109.438 C 526.271 109.49 525.792 109.698 525.125 109.75 C 524.458 109.802 523.604 109.698 522.938 109.75 L 518.333 108.667 L 513.667 106.667 L 510 103.667 L 504.938 101.063 L 501.313 100.313 L 498.667 99.667 L 492.667 99 L 488.901 98.582 L 487 98.563 L 485.167 99.167 L 483.667 100 L 482.063 101.188 L 480.667 102.667 L 479 104.375 L 476.625 105.813 L 474.75 106.563 L 472.75 106.938 L 470.063 107.375 L 467.667 107.333 L 464.938 108 Z "
       fill="rgb(189,192,187)"
       vector-effect="non-scaling-stroke"
       stroke-width="2"
       stroke="rgb(255,255,255)"
       stroke-linejoin="miter"
       stroke-linecap="square"
       stroke-miterlimit="3"
       id="monagas" />
    <path
       d=" M 545.688 113.75 L 544.063 114.063 L 542.688 114.75 L 541.75 115.75 L 542.438 116.438 L 543.125 117.125 L 545 118.25 L 546 118.875 L 546.938 120.063 L 547.625 121.25 L 548 122.938 L 547.5 124.625 L 546.5 126 L 545.625 127.375 L 544.5 128.75 L 543.188 129.313 L 542.375 130.75 L 542.5 131.75 L 543 133 L 545.375 136.063 L 546.601 137.757 L 547.25 139.063 L 548 140.875 L 548.5 142.75 L 549.125 146.375 L 549.75 148.688 L 550.875 149.938 L 552.438 150.594 L 554.25 150.938 L 556.313 150.25 L 558.031 150.25 L 559.875 150.875 L 561.188 152.375 L 561.938 153.875 L 562.063 156 L 561.375 157.063 L 561.25 158.25 L 561.75 159.313 L 563.063 159.938 L 564.375 160.813 L 565.063 162.375 L 564.563 163.906 L 563.688 165.438 L 562.75 166.75 L 561.5 168.25 L 559.563 170.25 L 557.75 171.5 L 555.938 172.75 L 553.813 174.188 L 549.25 176.75 L 546.92 178.121 L 545.375 179.625 L 544.188 180.938 L 543.175 182.535 L 542.5 183.75 L 542.25 185.375 L 542.5 186.625 L 544.5 187.563 L 546.75 188.25 L 549.313 188.938 L 551.75 190 L 555.188 190.313 L 557.875 190.438 L 562.25 190.563 L 568.063 190.813 L 571.563 190.688 L 574.188 190.875 L 576.125 190.875 L 578.188 191.75 L 580.125 192.375 L 581.875 193.875 L 583.563 195.875 L 585 198.5 L 586 201.063 L 587.5 203.25 L 588.563 205.938 L 590.5 208 L 592.375 209.875 L 594.375 211.75 L 597.313 212.375 L 600 212.5 L 603.253 212.217 L 606.063 211.813 L 608.688 211 L 611.188 210.313 L 614.25 209.125 L 616.438 208.5 L 618.25 209.063 L 619.25 210.25 L 620.375 211.938 L 621.5 214 L 623.188 215.5 L 625.5 216.25 C 626.161 215.998 627.221 216.172 628 215.875 C 628.542 215.669 629.247 215.479 629.75 215.125 C 630.124 214.862 630.274 214.431 630.75 214.25 L 632.25 212.938 L 633.5 211.25 L 635.313 209.625 L 637.125 208.625 L 639.563 207.813 L 641.75 207.688 L 644.063 207 L 647 206.5 L 649.438 206.25 L 651.75 206.5 L 654.625 206 L 657.5 205 L 659.813 204 L 661.5 203 C 662.016 202.452 662.833 201.958 663.5 201.25 C 664.167 200.542 664.682 199.619 665.5 198.75 L 667.071 196.179 L 667.938 194.313 L 669.25 193.125 L 671.25 192.5 L 673.313 191.375 L 674.75 190.25 L 675.375 188.875 L 675.688 187.313 L 675.404 186.208 L 674.063 184.313 L 670.5 182.25 L 667.25 178.5 L 665.129 176.682 L 663.375 175.375 L 661.5 174.625 L 659.25 173.75 L 656.875 172.813 L 654.25 172.25 L 648.5 171.75 L 645.436 171.903 L 643.25 172.25 L 641.25 173 L 639 174 L 637.313 174.313 L 635.75 174.5 L 633.938 174.125 L 631.938 173 L 629.5 170.5 L 627 166.5 L 625.25 161.5 L 624 156.5 L 622.5 152.5 L 621.25 148.75 L 620 145.5 L 619.938 144.188 L 620.5 143.25 C 620.875 142.917 621.563 142.521 621.938 142.188 C 622.313 141.854 622.375 141.583 622.75 141.25 L 623.5 140 L 623.5 138.25 L 622.813 136.25 L 621 133.75 L 619.058 131.253 L 617.5 129.438 L 615.25 128 L 613 126.75 L 607.75 124.75 L 601.5 123 L 597.75 121.5 L 594.75 119.25 L 594 117.625 L 593.188 116.313 L 591.875 114.875 L 590.5 113.75 L 586.75 112 L 583.5 111.75 L 582 112.375 L 581 113 L 580.197 114.111 L 579.75 115.75 L 578.625 117.188 L 577.438 117.719 L 576.125 117.938 L 574.625 117.5 L 573 116.75 L 569.25 113.25 L 567.563 111.375 L 565.25 109.75 L 561.75 108 L 558.5 106 L 556.967 105.025 L 555.688 104.625 L 554 104.75 L 552.25 105.25 L 549.75 106.75 L 548.438 108.063 L 547.5 109.75 L 547.04 111.588 L 546.75 112.75 L 545.688 113.75 Z "
       fill="rgb(189,192,187)"
       vector-effect="non-scaling-stroke"
       stroke-width="2"
       stroke="rgb(255,255,255)"
       stroke-linejoin="miter"
       stroke-linecap="square"
       stroke-miterlimit="3"
       id="delta_amacuro" />
    <path
       d=" M 660.125 203.625 L 658 204.875 L 654.75 205.75 L 652.75 207.75 L 649.875 209.125 L 646 210 L 643 211.375 L 641 214 L 638.625 217 L 636.75 219.75 L 634.625 221.875 L 631.625 223.875 L 630.125 225.5 L 629.5 227.375 L 630.125 228.875 L 632.25 231.375 L 633.5 234.75 L 634.125 239.125 L 635.875 241.125 L 638.25 243.25 L 642.667 244 L 645.25 243.625 L 648 245.5 L 649.25 247.875 L 649 250.75 L 647.25 253.25 L 643.25 255.375 L 636 258 L 628 260 L 624.25 260.625 L 621.625 260.875 L 619.011 262.06 L 614.667 264.667 L 611.25 265.5 L 608 266.25 L 605.375 268.25 L 604.75 271.125 L 606.125 274.625 L 606.75 279 L 607.25 282.375 L 609.25 285 L 609.375 288.25 L 608 290 L 603.125 295.375 L 600.875 299.375 L 599.75 302.875 L 600 307.375 L 602 310.5 L 604.125 313.625 L 607.375 316.75 L 610.625 320.875 L 614.25 325.125 C 616.556 328.333 619.593 331.302 623.333 334 L 629.125 338.5 L 633.875 341.125 L 636.875 343.375 L 637.75 347.375 L 639.25 350.625 L 641.875 353.125 L 646 354.5 L 650.125 354.125 L 653.063 353.063 L 656.375 352.125 L 661 352.25 L 664.667 354 L 667.667 356 L 671.5 359.25 L 670.25 361.625 L 669.375 365.125 L 669.75 369.375 C 670.048 370.596 669.822 372.132 669.75 373.125 C 669.655 374.448 669.565 375.113 668.75 375.75 L 667.25 378.875 L 665.875 381.625 L 665.5 384.25 L 666.125 386.75 L 668.625 388.5 L 671.125 390.25 L 675.375 391.5 L 679.47 391.705 L 684.667 391.333 L 689.75 392.25 L 690.125 394.75 L 688.75 397.75 L 687.875 400.375 L 687.5 402.375 L 687.875 404.875 L 689.604 406.438 L 691.5 408.375 C 692.534 409.661 694.294 411.059 695.375 412.75 C 696.248 414.117 695.977 415.374 696.875 417 L 696.771 420.5 L 695.875 424 L 691.5 428.125 L 688.625 430.5 L 685.063 432.063 L 682.25 433.375 C 681.938 434.063 681.325 434.707 681.5 435.375 C 681.675 436.043 681.847 437.028 681.875 437.625 L 683.625 440.375 L 682.875 443.5 L 682.625 447.875 L 680.313 450.604 L 678.375 452.25 L 676.625 454.375 L 676.25 457 L 677 459.5 L 676.75 463.625 L 674.5 468.875 C 674.486 469.982 674.11 470.983 674.125 472.625 C 674.137 473.91 673.503 475.295 673.625 477 C 673.747 478.705 673.333 480.189 673.375 482.125 L 673.875 486.5 L 675.625 490.125 L 676.875 493.875 L 683.333 502 L 687.5 506.5 L 690.375 509.875 L 690.75 513.375 L 690 517.125 L 689.5 520.75 L 689.625 523.625 L 690.625 525.5 C 691.983 526.917 693.368 528.761 694.25 529 L 704.667 538 L 713.25 544 L 718.774 549.475 L 723.375 552.875 L 726.75 553.625 L 730 553.5 L 733.375 552.375 L 736.875 553.625 L 739.125 556 L 741.125 557.875 L 744.625 559.25 L 747.75 559.75 L 750 559.375 L 751.375 557.5 L 751 552.375 L 750.75 546.5 L 751.125 543.875 L 754.125 542.375 L 756.625 540 L 758.25 537.25 L 758.25 534.25 L 760.875 531.875 C 761.479 531.543 763.155 531.155 764.125 529.625 C 765.032 528.665 766.064 527.792 766.875 525.625 C 767.42 524.169 767.287 522.278 767.875 520.25 C 768.169 519.236 767.112 518.302 767.625 517.25 C 768.138 516.198 767.553 514.778 768 513.75 L 769.928 510.988 L 773.375 509.25 L 775.5 507 L 775.25 504 L 773.875 501.625 L 772.625 499.125 C 772.839 498.363 773.343 497.768 773.875 495.875 C 774.172 494.819 775.372 494.635 775.75 493.125 C 776.064 491.871 777.28 491.59 777.5 489.875 C 777.64 488.782 776.398 487.675 776.375 486.25 C 776.358 485.204 777.399 484.341 777.75 483.25 C 778.101 482.159 777.764 480.84 778 480 L 778.25 474.125 L 777.125 467.5 L 776.5 461 L 777.5 455.375 L 778.375 450.375 L 778.25 446.375 C 778.548 442.594 777.215 438.682 774.25 433.625 C 773.591 432.502 771.944 432.063 771.125 430.75 C 770.306 429.437 769.857 428.501 768.875 427.25 L 768.333 424.654 L 769 422 C 769.611 421.629 770.583 419.208 768.25 416.875 L 765.875 414 L 762.125 411.875 L 759.125 409.5 C 759.163 408.918 759.347 407.765 759.604 405.997 C 759.777 404.812 761.034 403.999 761.25 402.25 C 761.41 400.95 761.924 399.379 761.875 397.625 C 761.834 396.155 761.967 394.379 761.5 392.75 C 761.179 391.632 760.172 390.708 760.25 389.5 L 756.326 384.791 L 752.125 381.375 L 745.75 375.5 L 742.125 371.875 C 741.824 371.008 739.861 370.024 739.375 368.625 C 738.996 367.535 737.098 365.45 737 364 C 736.951 363.275 737.194 361.977 737.5 361.375 C 737.806 360.773 738.176 360.868 737.875 360 L 740.125 351.5 L 740.396 347.083 L 739 344.75 L 738.875 342.25 L 741.343 340.578 L 744.75 340.625 L 748.25 338.5 L 751.375 335.75 L 752.75 331.375 L 752.75 326.375 L 751.875 322 L 752.25 318.875 L 754.125 313.625 L 754.75 306.375 L 753.5 300.375 L 754.875 296.625 C 754.915 295.023 754.258 293.492 752.875 292 L 751.5 287.5 L 751.25 281.25 L 752.667 275.333 L 754.125 268.25 L 757.076 259.858 L 758.667 255.333 L 760 252.5 L 760.625 248.375 L 760.75 240.75 L 758.75 235.75 L 757 230.75 L 752.375 227.25 L 749.125 224.125 L 744.625 219.125 L 737.079 211.669 L 733.125 208.875 L 728.75 205.75 L 726.375 201.125 L 720.667 194.667 L 718.125 190.75 L 714.875 188.5 L 711.333 187.333 L 707 186.125 L 702.125 186.875 L 697.25 185.5 L 693.5 185 L 689.875 185.875 L 684 190.125 C 682.987 189.6 681.696 189.606 681 189.375 C 679.03 188.721 678.683 188.626 678.5 188.25 L 676 186.25 L 675.625 188.375 L 674.5 191 L 672.125 191.875 L 669 193.25 L 666.625 197.125 L 663.875 200.625 L 660.125 203.625 Z "
       fill="rgb(189,192,187)"
       vector-effect="non-scaling-stroke"
       stroke-width="2"
       stroke="rgb(255,255,255)"
       stroke-linejoin="miter"
       stroke-linecap="square"
       stroke-miterlimit="3"
       id="path3490" />
    <path
       d=" M 546.25 188.5 L 544.125 187.5 L 541.625 186.625 L 539.5 187 L 537.125 187.875 L 534.375 187.875 L 531.125 186.875 L 529 188 L 526.125 190 L 525.125 192.5 L 523.25 194 L 520.25 193.5 L 517.25 192 L 514.125 191.5 L 510.375 192 L 506.5 192.75 L 503.125 194.375 L 497.875 196.625 L 491.5 198.5 L 487.125 199 L 483.5 199.75 L 479.125 202.125 L 476.125 204.5 L 474.125 208.125 L 471.125 210.25 L 467 210.375 L 463 208.5 L 460.25 206.375 L 458.25 204.75 L 455 203.875 L 451.92 205.218 L 447.46 207.359 L 443.75 208.875 L 442 209.875 L 442.25 212.125 L 444.375 214.5 L 445.5 217 L 444 220 L 441.75 221.5 L 438.5 221.75 L 436.5 219.75 L 433.25 219.875 L 430.625 221.625 L 428.375 222.75 L 425.375 223.625 L 421.125 222.375 L 417.885 220.061 L 413.75 218.25 L 410.25 216.125 L 406 214.5 L 402.5 214 L 398.375 213.625 L 392.75 213 L 389.875 213 L 387.25 214.25 L 384.75 214.25 L 383.125 215.75 L 381.625 218.625 L 380.015 220.148 L 377.25 222.125 C 375.375 222.729 374.155 223.04 372.75 223.625 C 371.345 224.21 370.005 224.443 368.625 224.125 L 363.875 225.125 L 358.875 224.875 L 353.625 224.5 L 351.125 225.875 L 348 228.25 L 346.299 230.536 L 344.375 233.75 L 342.926 235.924 L 340 239 L 336.875 241.625 L 332.5 244.125 L 325.75 246.5 L 322 246.875 L 319.5 247.625 L 317.625 250.25 L 317.375 253.5 L 318.75 257.125 L 319.625 259.625 L 320.625 262.5 L 319.875 266.625 L 318.563 268 L 317 270.25 L 316.875 273.375 L 316 277 L 314.5 280 L 311.75 283.75 L 309.125 287.125 L 306 289.875 L 301 293 L 294.25 295.375 L 292.5 296.875 L 292.25 298.625 L 293.375 300.625 L 295.625 300.625 L 298.625 299.875 L 303.5 298.875 L 306.875 298.75 L 310.875 299.125 L 313.625 300.25 L 315.125 302.75 L 314.75 305.25 L 313 308.625 L 312.25 311.875 L 313.125 314.5 L 315.375 316.625 L 319.125 317.875 L 323.375 317.75 L 328.5 317.125 C 329.755 316.761 332.39 316.503 334.125 316 C 336.388 315.344 335.92 316.143 339 315.25 L 343.25 313.5 L 346.125 311.625 L 347.875 308.375 C 349.249 306.841 351.467 306.06 354.5 306 L 357.5 307.25 L 358.875 309.75 L 358.75 312.5 C 359 314.667 361.135 315.01 363.375 314.5 L 367.25 312.625 L 369.625 310.125 L 370.75 305.625 L 372 303.5 L 373.25 299.875 L 375.875 296 L 378.75 293.5 C 380.5 291.833 382.26 291.51 384 292.5 L 387.375 294.375 L 389.5 297 C 390.833 299.5 391.01 302.177 390 305 L 386.875 311.25 L 387.25 314 L 388 317 L 391.75 316.25 L 394.5 314 L 397.625 312.375 L 400.25 311 L 403.5 311.5 L 406.75 313.125 L 408.875 316.75 L 410 321.125 L 410.125 324.75 L 411.875 327.125 L 413.5 330 L 413.625 333.125 L 411.375 335.75 L 408.596 337.505 L 407.5 338.875 L 407.375 341.5 L 411 348 L 413.125 354.25 L 416.5 361 L 422.625 367.375 L 426.75 369.25 L 430.625 370.375 L 434.5 368.5 L 437.75 369.875 L 439.125 372.625 L 438.275 375.823 L 436.375 381.625 L 436 384.25 L 436.5 386.875 L 438.375 389.875 L 441.5 392.75 C 442.25 392.958 442.875 393.667 443.625 393.875 C 444.375 394.083 445.25 393.792 446 394 L 448.875 392.25 L 452.375 391 L 455.5 391.125 L 459.5 393 L 460.875 395.5 L 460.25 398.625 L 459.875 401.5 L 460.625 403.5 L 462.75 405.375 L 465.5 406.5 L 469.875 406.375 L 473.625 403.625 L 478.125 401.25 L 481.375 400.25 L 484.5 400 L 488.25 400.125 L 491.375 401.063 L 494.25 401.25 L 498.125 400.25 L 499.875 398.875 L 501.5 398.5 L 503.875 399.875 L 506.625 401.875 L 510.125 406.25 L 512.375 409.625 L 516.25 413.625 L 520 417.75 L 523.125 419.875 L 526.625 420.75 L 530.5 420.5 L 533.25 418.875 L 535.5 416.5 L 536.875 412.875 L 537 409.5 L 535.125 406.375 L 532.75 403.125 L 531.75 400.625 L 532.25 398.5 L 534.875 396.25 L 538.5 395.75 L 543.25 394.625 L 546.5 393.125 L 549.375 390.75 L 552.125 389 L 555 390.125 L 557.75 392.375 L 560.125 393.125 L 563.5 393.875 L 566.5 393.125 L 569 390.875 L 570.875 390.75 L 573.141 391.582 L 575.875 391.5 L 579.188 389.5 L 582 387.25 L 584.625 385.375 L 587.25 385.75 L 590.75 384.875 L 594.125 382.625 L 596 379 L 599.5 376.875 L 601.75 376.438 L 604.25 375.375 L 607 374 L 608.125 371.5 L 610 370.5 C 610.777 370.586 611.829 371.62 613 371.75 C 613.82 371.841 614.881 372.119 615.875 372 C 616.869 371.881 617.794 371.366 619 371.5 L 622.181 369.228 L 624.375 366.5 L 627.122 364.121 C 629.553 363.513 632.064 361.94 635.875 357.125 L 636.875 353.75 L 639 351.5 L 638.25 348.75 L 637.375 345 L 636.25 342.125 L 634.625 340.375 L 630.125 338.25 L 625 335.125 L 620.625 331.5 L 616.375 327.25 L 612.625 323.125 L 608.5 318.5 L 603.25 312.5 L 601.375 309.25 L 599.5 306 L 599.5 301.25 L 601.625 297.875 L 608 290.5 L 609.625 287.875 L 609.125 285 L 607.25 281.875 L 606.25 279 C 606.203 278.006 605.664 276.588 605.25 274.375 C 605.072 273.421 604.77 271.954 604.375 270.75 L 605 267.625 L 607.125 265.875 L 610.25 265.125 L 614.125 264.875 L 617.5 263.375 L 619.875 261.625 L 623.625 260.125 L 628 259.5 L 633.375 259 L 637 257.625 L 640.875 256.125 C 642.507 255.173 643.497 255.179 644.875 254.375 C 645.947 253.75 646.082 253.66 647 253.125 L 648.375 251 L 649.25 248.375 L 648.5 246.5 L 647.5 245 L 645.5 243.75 L 642.75 243.625 L 638.625 243.5 L 636 241.125 L 634.5 239 L 633.125 234.75 L 632.25 232.125 L 630.5 229.5 L 629 227.25 L 630 225 L 633.75 223.125 L 635.875 220.75 L 637 218.5 L 639.125 216.375 L 641.5 214 L 643 212 L 644.625 210.75 L 648.125 209.375 L 652 208.625 L 652.875 207.125 L 650.491 206.572 L 646.25 206.75 L 643.25 207.25 L 639.5 207.75 L 635.625 209.75 L 632.125 212.625 L 629.125 215.75 L 626.875 216.5 L 624 216 L 621.625 213.625 L 620.875 211.375 L 618.75 209.375 L 615.375 208.75 L 611.884 210.033 L 608.75 211.25 L 605 212 L 600.375 212.625 L 595.5 211.875 L 591.375 209.375 C 589.333 206.833 586.76 204.01 585.875 201.625 L 583.5 195 L 581.75 193.375 L 578.75 191.5 L 574 191.125 L 569.375 191.5 L 565 191 L 560.75 190.875 L 556.5 190.875 L 551 190 L 546.25 188.5 Z "
       fill="rgb(189,192,187)"
       vector-effect="non-scaling-stroke"
       stroke-width="2"
       stroke="rgb(255,255,255)"
       stroke-linejoin="miter"
       stroke-linecap="square"
       stroke-miterlimit="3"
       id="bolivar" />
    <path
       d=" M 299.625 299.625 L 295.375 300.125 L 294.25 301.5 L 294.75 304.5 L 294.25 307.875 L 291.125 310.75 L 289.063 312.875 L 287.75 315.5 L 286.75 318.625 L 288.375 321.125 L 289.688 322.313 L 290.375 323.75 L 288.5 327.125 L 287.25 330.125 L 284.25 331.875 L 280.625 333.125 L 278.5 335.25 C 277.828 336.828 277.848 338.89 278.5 340.125 L 280.5 347.5 L 280.875 353 L 279.625 360.375 L 278.125 365.625 L 277.75 371.125 L 279.069 375.479 L 281.625 381.375 L 281.125 386.375 L 281 390.75 L 282.5 396.125 L 284.375 400.625 L 290 409.5 L 298 419 L 305.5 428 L 303.5 430.875 L 294 437.625 L 278.625 449.5 L 276.75 451.5 L 277.125 453.125 L 281 455.625 L 285 456.375 L 288.375 457.125 L 292.5 459.5 L 296 464.5 L 300.875 469.25 L 308.147 473.336 L 311 474.625 L 311.25 478.375 L 309.875 482 L 311.125 487.375 L 314 492.5 L 319 507 L 323.5 523 L 325.75 528.75 L 329 534 L 333.5 537.25 L 338.125 539.375 L 341.875 542.75 L 344.125 546.625 L 346.625 549.625 L 350 552.5 L 353.75 554.875 L 359.5 556.5 L 364 556 L 368.5 554.75 L 374.125 552.875 L 378.25 549.75 L 384.625 546.25 L 387.75 545.5 C 389.928 546.162 391.354 547.338 392 549 L 392 555 L 392.625 558 L 395.5 560.625 L 398.75 561.125 L 401.5 559.375 L 402.625 556.5 L 403.625 553.375 L 404.75 552.125 L 407.959 554.067 L 410.125 554.25 L 411.085 552.227 L 414.75 544.125 L 418 538.625 L 422.375 535.125 L 426.375 533.5 L 429.75 531.875 L 441 529 L 447.797 522.543 L 450 520.5 L 452.125 521.75 L 452.875 525.125 L 455.25 526.625 L 458.125 524.563 L 460.125 521.75 L 464.625 517.625 L 467 513 L 470 506 L 470.125 501.625 L 470.875 499.5 L 473.63 498.896 L 478.625 498.625 L 483.75 496.75 L 489.5 494 L 493.875 492 L 497.5 492.875 L 500.25 495.25 L 502 495.125 L 502.125 491.5 L 502.75 486 L 503.398 481.555 L 503.375 476.625 L 503.75 473.375 L 503.5 471.25 L 500.875 469.125 L 497.971 468.514 L 495.625 468.625 L 493.813 469.563 L 491.125 470.5 L 487.125 471.625 L 483.375 471.75 L 479.125 471.5 L 474.75 469.5 L 471.125 468.125 L 469.125 467.125 L 470.25 465 L 470.375 459.5 L 469 455.125 L 467.5 450.375 L 464.875 445.875 L 462.875 443.625 L 460.5 441.625 L 460.75 436.375 L 460.5 432.25 L 460 429.125 L 460 423 C 460.203 421.577 460.407 420.153 460.61 418.73 C 460.74 417.82 460.245 417.285 460.375 416.375 L 458.375 411.875 C 456.458 410.083 453.885 408.718 450.625 407.75 L 443.25 405.5 L 439.75 402.375 L 437 397.5 C 436.405 394.507 435.373 391.976 433.875 389.875 L 433.75 387.75 L 435.75 385.625 L 436 381 L 437 377.875 L 439 375 L 438.875 372.75 L 438.5 370.5 L 435.75 369.25 L 432.25 369.375 L 429.75 370.125 L 427.375 369.5 L 423.875 367.875 L 418.25 362.125 L 415.375 358.25 L 413.625 354.875 L 412.125 351.25 L 409.5 346 L 407.25 341.75 L 406.75 339.125 L 408.5 337 L 411.625 335.375 L 413.17 332.854 L 413.5 331 L 412 328.25 L 410.5 325.5 L 409.5 322.25 L 409.25 318.75 L 408.75 316.5 L 406.625 313.375 L 404.25 311.125 L 400.75 311 L 396.5 313 L 394.375 314.75 L 391 316.5 L 389.125 316.125 L 387.5 315 L 386.625 312.25 L 387.5 310.125 L 388.375 308.125 L 390.125 304.5 L 390.75 300.125 L 390.125 297 L 388.063 294.75 L 385.25 292.875 L 382 292 L 378.875 293.625 L 376.438 296.563 L 374 299.375 L 372.125 302.25 L 371.25 306.875 L 370.125 309.5 L 368.5 312.375 L 365 313.75 L 361.375 314.125 L 358.5 314.125 L 358.125 312.125 L 358.375 310 C 357.771 309.396 358.104 308.604 357.5 308 C 356.896 307.396 355.854 307.104 355.25 306.5 L 352 305.625 L 348.75 306.875 L 347.375 309.25 L 345 312 L 342 314.375 L 337.5 316.25 L 331.75 317.5 L 324.625 317.875 C 320.203 318.711 316.088 317.513 313.75 314.75 L 312.375 312.75 L 313 309 L 314.5 306.875 L 315 304.5 L 314.875 301.625 L 313 299.375 L 309.875 298.25 L 304.75 299 L 299.625 299.625 Z "
       fill="rgb(189,192,187)"
       vector-effect="non-scaling-stroke"
       stroke-width="2"
       stroke="rgb(255,255,255)"
       stroke-linejoin="miter"
       stroke-linecap="square"
       stroke-miterlimit="3"
       id="amazonas" />
    <path
       d=" M 283.625 291.625 L 287.5 292 L 289.625 294 L 293 295 C 295 295.167 297.843 294.51 301.5 293 L 307 289.25 L 310.875 285.125 L 313.24 281.901 L 314.5 279.625 L 315.75 276.125 L 316.063 272.813 L 316.625 270.125 L 317.813 268.313 L 319.25 267.125 L 320.5 264.125 L 320 260.5 L 318.75 257.75 L 317.625 255.25 L 317.125 252.375 L 317.875 249.875 L 319.125 247.875 L 321.75 246.375 C 323.258 245.945 324.963 246.111 326.913 245.495 C 328.328 245.048 329.858 244.55 331.5 244 L 338.875 239.75 L 342.75 235.25 L 345.125 231.375 L 347.5 228.875 L 350.125 226.875 L 352.875 225.125 L 352.25 223.875 L 349.125 222.5 L 346.25 221 L 342 220 L 337.5 222 L 328.625 221.25 L 323.875 222.25 L 319.25 222.25 L 316.054 221.219 L 311.5 219.75 L 304.25 216 L 298.875 213.875 L 295.5 213.625 L 293.125 211.375 L 292 208.5 L 289.5 210.125 L 286.875 212.125 L 283.375 213 L 279.875 211.5 L 275.75 208.875 L 273.25 207.75 L 269.75 208.5 L 264.875 210.25 L 260.373 210.709 L 255.25 211.625 L 246.5 212.375 L 243 213.875 L 238.5 215 C 234.887 214.708 232.841 214.804 230.625 214.625 C 229.071 214.499 226.992 214.07 226.125 214 L 221.875 212.5 L 217.25 210.375 L 210.25 207.375 L 206.125 206.875 L 202 207.5 L 196.75 210.375 L 192.75 213.875 L 187.625 218 L 179.375 222 C 177.977 222.749 175.835 223.428 174.698 224.037 C 173.562 224.645 172.556 225.184 171.681 225.653 C 169.931 226.59 168.704 227.248 168 227.625 L 166.875 229.625 L 164.5 230.75 L 161.125 230.625 L 158.848 232.854 L 155.25 237.625 L 151.75 240.25 L 147 242.5 L 143.25 243.75 L 137.5 244.625 L 132 244.5 L 126.25 243.125 L 120.75 240.875 L 114.75 238.625 C 112.71 238.323 112.25 237.51 110.875 236.875 C 109.217 236.11 107.372 235.234 106 234.5 L 103.5 232 L 101.375 234.375 L 98.688 234.813 L 96.375 234.625 L 92.5 233.625 L 89.75 233.75 L 86.875 235 L 83.25 237.625 L 80.25 239.375 L 77.625 240.375 L 74.625 240.563 L 72.75 240.125 L 70.25 238.625 L 68.875 237.5 L 66.875 237.625 L 65.5 239.5 L 66.625 242.25 L 66.5 245.5 L 69.5 252.5 L 72.375 255.875 L 75.5 258 L 81.25 259.625 L 85.375 259.375 L 88.625 258.125 L 94 256 C 97.167 254.958 101.01 255.177 103.5 255.625 L 107 256 L 113.875 258.375 L 118.819 259.873 L 122.5 260.125 L 126.188 259.125 L 129.375 257.75 L 133 255.5 L 137.5 254.25 L 141.375 253.75 L 145.25 254.25 L 148.25 255.375 L 150.625 257.375 L 152.875 260 L 154.438 261.5 L 156.375 262.375 L 158.625 262.625 L 160.5 261.875 L 162.5 259.625 L 164.625 257.75 L 167.25 257.75 L 169.5 259 L 173.125 261.75 L 175.875 264.75 L 182.5 275 L 194 290.5 L 199.125 297 L 202.125 298.75 L 204.5 299.875 L 207.875 300.125 L 212.625 300.125 L 215.625 299.125 L 218.375 296.75 L 221.199 295.732 L 224.125 295.125 L 226 295.875 L 228.5 297.5 L 232.25 299 L 236.125 299.5 L 239.75 299.625 L 243.25 298.75 L 247.294 296.426 L 252 295.25 L 254.125 296.375 L 256.157 297.714 L 258.875 298.25 L 262.375 295.875 L 266 295 L 269.123 294.955 L 274.625 294.875 L 278.5 294.25 L 280.75 293 L 283.625 291.625 Z "
       fill="rgb(189,192,187)"
       vector-effect="non-scaling-stroke"
       stroke-width="2"
       stroke="rgb(255,255,255)"
       stroke-linejoin="miter"
       stroke-linecap="square"
       stroke-miterlimit="3"
       id="apure" />
    <path
       d=" M 391.813 209.75 L 390.938 212.25 L 389.563 213.281 L 387.375 214 L 385.667 214.333 L 383.688 215 L 382.375 215.875 L 381 217.667 L 379.167 219.667 L 377.063 221.438 L 374.125 222.938 L 369.938 223.875 L 366.373 223.942 L 363.063 224.313 L 357.75 224.813 L 353.5 224.438 L 349.979 223.073 L 347.625 221.813 L 345.021 220.667 L 342.375 220 L 340.19 220.443 L 337.333 221.667 L 334.75 222.125 L 331.813 221.5 L 328.063 221.75 L 325.563 222.25 L 323.125 222.333 L 319.667 222.333 L 312.938 220.063 L 307.333 217.667 L 302.333 215.667 L 297.667 214 L 294.333 212 L 292.875 210.875 L 292.313 209.313 L 292.438 207.5 L 291.667 205.333 L 289.688 202.438 L 287.333 200.333 L 284.063 197.25 L 281.75 196.25 L 278.875 194.625 L 276.667 192 L 275 189.333 L 273.125 185.563 L 271.813 183.125 L 270.25 180.625 L 269.75 178.688 L 270.938 175 L 271.75 171.188 L 272.75 168.563 L 273.984 166.247 L 275.75 163 L 277.125 160.75 L 278.313 158.438 L 278.276 156.52 L 277.938 153.813 L 277 148 L 276.438 144.063 L 276.688 140.375 L 277.672 137.082 L 278.667 134.667 L 281.333 131 L 282.25 129.063 L 283 127 L 283.25 125.375 L 282.563 123.563 L 284.875 121.375 L 286.688 119.625 C 287.154 118.795 287.484 118.346 288.063 117.813 C 288.641 117.279 288.78 116.704 289.188 116.313 C 289.725 115.797 289.692 115.179 290.125 115 C 290.616 114.797 290.715 114.965 291.063 115.188 C 291.245 115.305 291.693 115.296 291.875 115.563 L 293.063 115.75 L 299 116.667 C 304.609 117.307 307.619 118.317 308 119.667 L 314 123.667 C 315.001 124.015 315.94 124.657 316.75 125 C 319.013 125.959 320.494 126.6 321.25 127.5 L 322.625 128.625 L 322.813 130.313 L 321.75 132.438 L 320.813 133.875 L 320.188 135.75 L 320.5 137.813 L 321.688 139.75 L 323.25 140.813 L 324.625 141.25 L 326.313 141.438 L 328.438 141.313 L 330.563 141.625 L 332.813 142 L 335.125 142.313 L 337.104 141.875 L 338.875 141.75 C 339.658 141.596 339.779 140.981 340.813 140.688 L 342.313 138.625 C 343.578 137.141 343.682 135.543 343.188 133.688 L 342.938 132.188 C 342.604 131.557 342.356 130.724 342 130.188 C 341.44 129.344 341.51 128.665 341.125 127.938 C 340.582 126.912 340.434 125.891 340.063 125.188 L 339.563 123 L 339.813 121.375 C 339.938 121.375 339.688 120.125 339.667 119 L 339.813 117.5 L 342.25 117.063 L 344.813 116.5 C 345.435 116.197 345.823 115.956 346.188 115.563 C 346.552 115.169 346.747 114.455 347.188 114.188 C 347.921 113.742 349.177 113.728 349.813 113.563 C 351.516 113.117 352.934 113.783 353.313 114.438 L 355.125 115.188 L 357.375 115.938 C 358.471 116.303 359.217 116.76 360.313 117.125 C 361.217 117.426 362.658 117.636 363.563 117.938 L 367.75 118.813 L 371.938 119.063 L 375.563 118.563 L 378.063 117.688 L 381 116.938 L 381.313 118.438 L 382.063 120.375 L 383.063 122.438 L 383 124.75 L 382.938 127.563 L 384 129.667 L 385.688 131.313 L 387.688 132.063 L 389.875 132.125 L 391.688 132.125 L 393.813 131.313 L 395.5 130.625 L 397.063 130.875 L 398.313 131.813 L 399.688 132.875 L 401.438 134.188 L 403 135.25 L 404.628 135.831 L 405.875 136.75 L 405.875 137.938 L 404.625 139.813 L 403.938 142.188 L 403.75 144.438 L 404.688 147 L 406.438 148.688 L 408.75 150.313 C 412.504 152.677 415.647 153.61 416.982 153.04 L 418.813 153.688 L 420.25 154.813 L 420.25 156 L 420 157.667 C 419.893 159.765 420.215 161.324 420.938 162.313 L 422.25 164.75 L 423.813 167.438 L 423.5 169.063 L 421.5 170.125 L 419 170.5 L 416.875 170.938 L 414.063 170.438 L 412 170.563 L 409.938 171 L 408.188 172.25 L 407.063 174.25 L 405.875 177.75 L 406.125 180.25 L 406.625 182.938 L 406.313 185.813 L 405.063 187.438 L 402.813 190.125 L 400.625 192.625 C 398.184 194.676 397.514 197.061 396.5 199 L 394.875 202.438 C 393.553 204.787 392.848 207.165 391.813 209.75 Z "
       fill="rgb(189,192,187)"
       vector-effect="non-scaling-stroke"
       stroke-width="2"
       stroke="rgb(255,255,255)"
       stroke-linejoin="miter"
       stroke-linecap="square"
       stroke-miterlimit="3"
       id="guarico" />
    <path
       d=" M 312.813 99.625 L 310.563 100.438 L 310.125 101.5 L 310.75 102.75 L 312.625 105.25 L 314.688 107.125 L 317.625 108.875 L 320.438 109.5 L 323.333 110 L 329.688 111 L 333.375 111.938 L 335.188 112.875 L 337.375 114.75 L 338.563 116.375 L 339.688 117.625 L 341.375 117.5 L 343.063 117.125 L 345.688 116.25 L 346.938 115.313 L 347.5 114.063 L 348.688 113.313 L 350.5 113.625 L 352.938 114.5 L 355.625 115.438 L 358 116.375 L 361 117.188 L 363.438 117.625 L 365.313 117.875 L 368 118.667 L 371.875 118.938 L 374 118.333 L 376.25 117.635 L 378.5 116.938 L 381.625 116.375 C 382.743 116.066 383.882 115.497 385 115.188 C 386.118 114.878 387.257 115.122 388.375 114.813 L 391.188 113.938 L 394.5 112.375 L 397.063 109.563 L 399.125 106.813 L 400.438 104.875 L 398.813 104 C 395.995 102.658 392.512 101.445 388.333 100.333 L 384.188 99.063 L 379.25 97.5 L 366.623 92.28 L 363.75 91.063 L 360.875 91.375 L 357.625 92.313 L 351.667 92.667 C 350.844 92.51 350.354 91.91 349.188 91.688 C 348.021 91.465 348.51 90.913 347 90.625 L 343.813 89.875 L 339.75 89.563 L 337.375 89.563 C 336.406 89.942 335.146 89.837 334.25 90.188 C 333.354 90.538 333.01 90.678 332.188 91 L 329.188 92.188 L 326.333 93.333 L 320.333 96 L 314.625 98.438 L 312.813 99.625 Z "
       fill="rgb(189,192,187)"
       vector-effect="non-scaling-stroke"
       stroke-width="2"
       stroke="rgb(255,255,255)"
       stroke-linejoin="miter"
       stroke-linecap="square"
       stroke-miterlimit="3"
       id="miranda" />
    <path
       d=" M 360.813 91.5 L 363.75 90.438 L 365.052 87.869 L 365.313 86.063 L 364.25 84.625 L 363.313 83.188 L 361.875 82.188 L 356.333 82 L 347.375 81.75 L 341.875 82.063 L 336.188 81.563 L 325.313 82.25 L 316.938 84.063 L 313.25 84.5 L 307.813 84.688 L 304.25 85.188 L 301.875 85.875 L 299.188 86.938 L 297.875 87.625 L 297.063 89.125 L 297.313 90.875 C 297.58 91.288 297.664 91.759 298.063 92.375 C 298.365 92.843 299.684 93.602 300.063 94.188 L 302.063 95 L 304.813 96 L 305.75 94.25 L 306.813 92.25 L 308.375 90.563 L 310.875 89 L 313.875 88.313 L 317.875 87.688 L 322.625 87.875 L 325.125 88.188 L 326.125 88.813 L 326.313 90.188 L 325.813 92.25 L 325.938 93.313 L 330.258 91.583 L 333.5 90.25 L 335.563 89.688 L 338.313 89.438 L 340.813 89.375 L 344.125 89.75 L 347.375 90.125 L 350.188 91.438 C 351.457 91.726 352.246 91.803 353.25 92.313 C 353.987 92.686 355.142 92.424 355.75 92.563 C 356.898 92.823 357.842 92.038 358.5 92.188 L 360.813 91.5 Z "
       fill="rgb(189,192,187)"
       vector-effect="non-scaling-stroke"
       stroke-width="2"
       stroke="rgb(255,255,255)"
       stroke-linejoin="miter"
       stroke-linecap="square"
       stroke-miterlimit="3"
       id="la_guaira" />
    <path
       d=" M 304.875 96.75 L 305.813 98.375 L 306.75 99.938 L 308.438 100.875 L 309.813 101.063 L 311.813 100.063 L 314.875 98.875 L 319.125 96.813 L 319.188 96.625 L 321.5 95.5 L 324 94.438 L 325 93.313 L 325 91.323 L 325.375 89.375 L 323.563 88.188 L 320 87.688 L 317.063 87.5 L 314.707 87.873 L 312.688 88.125 L 310.75 88.938 L 308.688 89.938 L 307.063 91.313 L 305.652 93.183 L 304.438 95.063 L 304.875 96.75 Z "
       fill="rgb(189,192,187)"
       vector-effect="non-scaling-stroke"
       stroke-width="2"
       stroke="rgb(255,255,255)"
       stroke-linejoin="miter"
       stroke-linecap="square"
       stroke-miterlimit="3"
       id="dc" />
    <path
       d=" M 320.313 135.875 L 320.75 138.25 L 322 140 L 324.875 141.125 L 327.125 141.313 L 329.75 141.563 L 334.875 142.625 L 337.375 142.375 L 339.75 141.625 L 341.938 140.063 L 342.625 138.063 L 343.438 136.188 L 343.25 134.438 L 343.063 132.188 L 342.313 130.375 L 341 127 L 340.375 122.938 L 339.875 119.313 L 339.625 117.75 L 338.063 115.688 L 335.698 113.51 L 333.438 112.063 L 330.875 111.25 L 328.438 110.813 L 326.063 110.625 L 321.813 109.688 L 316.333 107.667 L 313 105.813 L 309.313 101.188 L 304.667 98 L 303.625 96.063 L 301.313 94.688 L 299.625 93.875 L 297.75 92.188 L 296.938 90.25 L 296.688 87.938 L 295.25 87.125 L 292.625 86.938 L 289.393 87.482 L 285.125 88.625 L 281.625 90.063 L 278.563 91.25 L 277.25 91.875 L 278.063 94.188 L 278.875 96.438 L 279.563 98.688 L 280.625 100.375 L 281.875 101.938 L 283.875 103.563 L 285.333 105.667 C 285.889 106.278 286.444 106.889 287 107.5 C 287.556 108.111 287.444 108.701 288 109.313 L 289 111.656 L 290.063 113.563 L 291.833 115.167 L 293.938 116 L 297.062 116.378 L 301.5 116.438 L 304.25 117.438 L 306.688 118.563 L 309 120 L 310.438 121.125 L 311.688 122.563 L 316.625 125.188 L 318.688 125.938 L 320.625 126.875 L 321.75 127.938 L 321.938 129.563 L 321.875 131.875 L 321 133.75 L 320.313 135.875 Z "
       fill="rgb(189,192,187)"
       vector-effect="non-scaling-stroke"
       stroke-width="2"
       stroke="rgb(255,255,255)"
       stroke-linejoin="miter"
       stroke-linecap="square"
       stroke-miterlimit="3"
       id="aragua" />
    <path
       d=" M 279.188 122.833 L 282.625 122.375 C 283.507 121.653 284.139 121.556 285.021 120.833 C 285.903 120.111 286.785 119.389 287.667 118.667 L 290.125 114.125 L 288.333 109.667 L 285 105.333 L 280.667 100 L 279.25 96.5 L 278.125 94.125 L 277.25 92.5 L 275.875 90.75 L 274.625 89.875 L 272.25 89.75 L 269.375 91.375 L 266 91.125 L 262.667 90 L 258.667 90 L 254.961 90.824 L 252.625 91.625 L 250 93.875 L 248.125 97.25 L 247.25 101.625 L 247.875 105.125 L 248.25 107.5 L 251.125 106.875 L 254.25 106 L 256.5 106.875 L 257.875 110.375 L 258.625 115.25 L 260.25 118.5 L 262.375 120.25 L 266.375 119.875 L 270.25 121.25 L 276 122.667 L 279.188 122.833 Z "
       fill="rgb(189,192,187)"
       vector-effect="non-scaling-stroke"
       stroke-width="2"
       stroke="rgb(255,255,255)"
       stroke-linejoin="miter"
       stroke-linecap="square"
       stroke-miterlimit="3"
       id="carabobo" />
    <path
       d=" M 252.688 182.688 L 257.667 183 L 262.063 182.313 L 266.063 181.438 L 268.125 180.25 L 269 178.625 L 270.75 176.063 L 271.375 172.5 L 272.875 168.375 L 275.688 162.875 L 277.313 160.438 L 278.188 158.438 L 278.5 155.188 L 277.25 151.188 L 276.81 148.001 L 275.667 144 C 276.195 142.474 276.31 140.955 276.625 139.688 C 276.94 138.42 277.457 137.403 277.813 136.375 C 278.344 134.839 279.286 133.543 279.625 132.563 L 282.5 126.813 L 282.25 124.438 L 281.313 123.188 L 277.125 122.938 L 274.25 122.375 L 269.875 121.5 L 267.313 120.438 L 264.625 120.313 L 262.75 119.813 L 260.563 118.5 L 259 116.333 L 258.063 114.125 C 257.936 113.138 257.479 112.115 257.313 110.813 C 257.146 109.51 256.957 108.43 256.75 106.813 L 255.469 105.563 L 253.875 105.5 L 252.375 106.125 L 251.813 107.938 L 252 109.667 L 251.688 112.563 L 252.125 115.313 L 253.063 118.313 L 252.063 119.813 L 250.5 120.75 L 248.875 121.813 L 246.313 122.125 L 244.375 121.125 L 243.125 119.938 L 242.188 118.563 L 240.667 116.667 L 238.688 115.875 L 236.188 116.063 L 233.875 116.563 L 232.188 117.25 L 231.313 118.563 L 231.25 120.625 L 229.667 122.333 C 228.938 123.146 228.038 123.482 226.938 123.313 L 225.375 122.75 L 223.625 122.125 C 223.446 122.453 223.645 122.117 223.313 122.063 C 222.98 122.008 222.116 122.234 221.938 122.563 C 221.58 123.219 221.545 124.281 221.188 124.938 L 221.438 127.063 L 222.5 130.313 L 223.316 133.455 L 223.938 137.75 C 224.357 138.559 224.602 139.456 224.875 140.25 C 225.24 141.311 225.998 142.16 226.375 143 C 226.88 144.125 227.684 144.836 228.125 145.688 C 228.622 146.646 229.361 147.37 229.688 148 L 231.813 149.875 L 234.25 151.75 L 236.063 153.813 L 237 155.75 L 237.375 157.813 L 237.375 160.313 L 237.438 162.938 L 237.063 166.125 L 236.063 169.5 L 235.438 172.625 L 235.625 175.188 L 236.625 177.25 L 238.25 178.438 L 240.063 180.063 L 242.25 181.625 L 243.938 181.688 L 248.688 182.25 L 252.688 182.688 Z "
       fill="rgb(189,192,187)"
       vector-effect="non-scaling-stroke"
       stroke-width="2"
       stroke="rgb(255,255,255)"
       stroke-linejoin="miter"
       stroke-linecap="square"
       stroke-miterlimit="3"
       id="cojedes" />
    <path
       d=" M 225.063 122.313 L 226.625 123.188 L 228.313 123.063 L 229.875 122 C 230.429 121.142 230.579 121.153 230.938 120.375 C 231.296 119.597 231.319 118.696 231.688 118.125 C 232.173 117.373 232.989 117.002 233.313 116.5 L 236.188 115.5 L 238.625 115.625 L 240.313 116.125 L 241.375 117 L 242.125 118 L 243.063 119.375 L 244.813 121.063 L 246.313 121.813 L 247.875 121.938 L 249.75 121.25 L 251.5 120.125 L 252.938 118.438 L 253 116.25 L 251.938 112.563 L 251.688 109.188 L 251.625 107.438 L 250.375 106.75 L 249.188 107.375 L 248.25 107.188 L 247.75 105.063 L 247.938 101.563 L 247.875 98.875 L 249.5 95.938 L 250.333 92 L 253.625 90.813 L 256.5 89.75 L 259.625 89.625 L 261.875 89.563 L 262.313 88.375 L 262.063 86.875 L 260.813 85.75 L 258.938 85.188 L 256.813 84.625 L 254.063 84.688 L 251.333 84 L 246.188 81.5 C 245.306 80.777 244.632 80.187 244.063 79.438 C 243.493 78.688 242.506 78.279 241.938 77.813 C 241.199 77.206 240.286 77.264 239.813 76.875 L 237.063 76.813 L 234.813 77.313 L 232.5 78.5 L 229.333 80.667 C 227.483 82.12 226.008 83.553 224.563 84.875 C 223.355 85.979 222.118 86.993 221.188 88 L 218.75 90.438 L 217.063 92.125 L 216.375 93.938 L 216.438 95.563 L 217.375 97.625 L 218.625 98.813 L 219.188 100.5 L 217.188 102.688 L 214.438 104.625 L 212 105.813 L 210.625 107.438 L 210.625 109.438 L 211.25 112 L 212.063 114.5 L 213.688 116.188 L 215.313 117.313 L 217.063 117.375 L 218.563 117.188 L 220.063 116.313 L 222 115.688 L 223.333 116.333 L 223.573 117.667 L 223.813 119 L 223.813 121 L 225.063 122.313 Z "
       fill="rgb(189,192,187)"
       vector-effect="non-scaling-stroke"
       stroke-width="2"
       stroke="rgb(255,255,255)"
       stroke-linejoin="miter"
       stroke-linecap="square"
       stroke-miterlimit="3"
       id="yaracuy" />
    <path
       d=" M 144.75 243.375 L 148 242.25 L 151.563 240.063 L 154.375 238.125 L 156.438 236.063 L 158.063 233.438 L 159.813 231.125 L 161.688 230.313 L 163.625 230.25 L 165.5 230.625 L 166.553 229.824 L 167.5 227.625 L 169.688 226.125 L 173.333 224.667 L 180.002 220.94 L 184.667 218.333 L 188.063 217 L 190.619 215.619 L 193.375 213.313 L 196.188 211 L 198.938 209.063 L 202.333 207.667 L 205.5 207.167 L 208.75 207 L 210.875 207.5 L 213.625 208.5 L 218.5 210.625 L 223 212.75 L 226.75 214.063 L 230.375 214.75 L 234.5 214.875 L 237.688 214.938 L 240.188 214.5 L 244 213.438 L 246.688 212.375 L 249.438 211.875 L 251.75 212.125 L 253.875 211.688 L 256.5 211.25 L 259.938 210.938 L 262.688 210.375 L 265.438 210 L 268.563 209.25 L 270.563 208.188 L 272.563 207.875 L 274.563 208.375 L 276.688 209.063 L 278.813 210.875 L 280.938 212.313 L 283.625 212.375 L 285.938 212.063 L 289.063 210.5 L 291.188 209.625 L 292.313 208.438 L 291.313 206.25 L 290.25 203.625 L 285.875 198.625 L 283 197 L 279.875 195.563 L 278.502 194.373 L 276.667 192.333 L 274.813 189.5 L 272.875 186.813 L 271.563 184.125 L 270.563 181.625 L 269.375 179.938 L 267.375 181.188 L 264.125 182.25 L 260.313 182.688 L 256.333 182.667 L 248.667 182.667 L 245.813 182.438 L 243.875 182.125 L 242.438 181.938 L 242.086 183.546 L 241.875 185.625 L 241.438 187.813 L 240 189.75 L 238.75 192.063 L 237.438 193.563 L 235.5 196.313 L 233.521 197.952 L 230.938 199.5 L 228 200.438 L 225.188 200 L 222 199.333 L 218.875 196.875 L 216.75 194.75 L 215.188 192.625 L 213.333 188.667 L 212.167 185.833 L 211.188 183.813 L 209.188 181.875 L 206.667 180.667 C 205.889 180.667 205.028 180.563 204.25 180.563 C 203.472 180.563 202.653 180.938 201.875 180.938 L 200.271 180.469 L 198.625 179.313 L 196.479 177.156 L 195 175.938 L 193.43 175.486 L 191.688 175.375 L 189.688 176.188 L 187.938 177.313 L 185.375 177.625 L 183.188 176.938 L 180.375 175.063 L 177.438 173 L 174.688 170.75 L 167.333 166.667 L 163.667 163 L 158.667 161.667 L 152.667 162 L 150.438 162 L 149.313 162.625 L 148.5 163.75 L 147.563 165.563 L 145.813 168 L 143.438 170.25 L 140.75 171.813 L 138.563 172.875 L 136.5 174.25 L 134 176.438 L 132.375 178.563 L 130.125 181.188 L 128.313 183.688 L 126.75 186 L 124.75 188.813 L 124.188 191.5 L 124.5 193.5 L 125.438 195.375 L 126 197.625 L 125.938 200.313 L 125.125 202 L 123.75 203.875 L 122.125 205.75 L 119.75 208 L 117.5 209.75 L 113.938 212.625 L 110.688 215 L 108.063 216.813 L 106 218.813 L 104.688 220.375 L 103.75 222.5 L 103.938 225.75 L 103.688 228.438 L 103.625 231.438 L 104.063 233.125 L 105.375 234.188 L 110.313 236.875 L 115.5 238.875 L 119.688 240.563 L 124.188 242.063 L 127.5 243.375 L 130.688 244.25 L 133.313 244.563 L 136.5 244.813 L 136.688 244.75 L 141 244.333 L 144.75 243.375 Z "
       fill="rgb(189,192,187)"
       vector-effect="non-scaling-stroke"
       stroke-width="2"
       stroke="rgb(255,255,255)"
       stroke-linejoin="miter"
       stroke-linecap="square"
       stroke-miterlimit="3"
       id="barinas" />
    <path
       d=" M 199.438 180.25 L 200.625 181.063 L 202.5 181.188 L 204.563 180.438 L 205.938 180.375 L 207.677 181.188 L 209.688 182.375 L 210.875 183.5 L 211.906 185.01 L 212.813 186.688 L 213.938 190.125 L 215.813 193.625 L 217.667 196 L 220.313 197.875 L 222.688 199.125 L 225.667 200 L 228.875 200.125 L 231.063 199.5 L 233.25 198.063 L 235.063 196.563 L 237 194 L 239.063 191.188 L 240.438 188.563 L 241.313 186.25 L 241.75 184.063 L 242.313 181.688 L 240.188 180.438 L 238.125 179 L 236.75 177.375 L 235.875 175.875 L 235.5 173.063 L 235.625 169.25 L 235.688 165.188 L 236.563 162.813 L 237.188 159.813 L 237.345 158.068 L 236.875 155.25 L 235.5 152.75 L 233.938 151.125 L 231.438 149.625 L 229.063 147.125 L 227.563 144.875 L 225.75 142.375 L 224.313 138.938 L 223.813 136.313 L 223.125 132.875 L 222.627 130.691 L 221.921 128.716 L 221 127.125 L 219.5 127.25 L 217.667 128.333 L 215.813 128.375 L 213.875 127.563 L 212.75 126.438 L 212.063 125.313 L 210.813 124 L 210.333 122.333 L 209.125 120.875 L 207 120.188 C 206.16 120.747 205.667 120.243 205 120.688 C 204.333 121.132 203.827 122.004 203.333 122.333 L 202.813 124.25 L 202.813 126.25 L 202.063 128.375 L 199.688 130.375 L 197.637 131.647 L 195.5 132.688 L 193.635 133.479 L 191.938 134.625 L 190.875 136.063 L 190.188 138 L 190.529 139.988 L 189.688 142.313 L 188.188 143.438 L 186.688 143.813 L 185.063 143.188 L 183.813 141.813 L 183.125 140.188 L 182.667 138.667 L 182.188 137.438 L 182.25 135.625 L 182.625 133.25 L 182.156 132.594 L 181.188 132.063 L 179.947 132.251 L 178 133 L 175.938 134.063 L 174.125 135.25 L 171.938 136.625 L 169.667 138 L 169 139 L 170.188 141.938 L 171.219 144.063 L 171.813 145.938 L 172.813 150 L 172.875 152.688 L 172.5 155.063 L 171.75 157.188 L 170.532 158.677 L 168.063 160.375 L 165.438 161.75 L 162.875 162.75 L 165.625 164.5 L 168.667 167 L 172.375 169.625 L 175.78 172.274 L 178.688 174.25 L 181.563 175.875 L 183.684 176.569 L 185.875 177 L 187.987 176.642 L 190.375 175.938 L 192 175.5 L 193.813 175.75 L 195.125 176.438 L 198.667 179.333 L 199.438 180.25 Z "
       fill="rgb(189,192,187)"
       vector-effect="non-scaling-stroke"
       stroke-width="2"
       stroke="rgb(255,255,255)"
       stroke-linejoin="miter"
       stroke-linecap="square"
       stroke-miterlimit="3"
       id="portuguesa" />
    <path
       d=" M 168.688 133.188 L 168.188 135.188 L 168.625 137.125 L 169.375 139.125 L 170.688 138 L 171.944 136.534 L 174.065 135.238 L 176.5 133.75 L 178.688 132.188 L 180.75 131.438 L 181.875 131.688 L 182.563 132.75 L 182.625 134.875 L 182.875 136.688 L 182.563 138.813 L 183.125 140.875 L 184.438 142.938 L 186.188 143.563 L 188.094 143.281 L 189.813 142.5 L 190.188 140 L 190.313 137.875 L 191 136.438 L 191.813 134.875 L 193.563 133.938 L 195.813 132.688 L 198 132.063 L 200.25 130.25 L 201.875 128.75 L 202.667 126.667 L 202.75 124.313 L 203.56 122.348 L 204.438 120.813 L 206.438 120 L 208.313 120.188 L 209.938 121.125 L 211.301 123.274 L 212.25 125.563 L 213.25 126.875 L 215.063 127.813 L 217.688 128.188 L 219.344 127.927 L 221 127.125 L 221.125 125.375 L 221.375 123.5 L 222.125 122.625 L 223.063 121.438 L 223.25 119.563 L 223.5 118.063 L 223.5 116.75 L 223 115.875 L 221.688 115.813 L 220.063 116.5 L 218.813 117 L 217.375 117.25 L 215.938 117.313 L 214.25 116.688 L 213 115.333 L 212.188 113.438 L 211.375 111.438 L 210.813 109.875 L 210.813 108.375 L 211.188 106.688 L 212.5 105.313 L 213.75 104.656 L 215 104 L 216.75 102.5 L 217.938 101.281 L 218.875 99.875 L 218.313 98.125 L 216.813 96.5 L 216 95 C 216.219 94.5 216.156 93.813 216.375 93.313 C 216.594 92.813 217.094 92.5 217.313 92 L 218.875 90.375 L 220.625 88.688 L 222.75 87 C 223.688 85.783 225.301 84.612 226.063 83.625 C 226.647 82.867 227.333 82.247 227.813 81.625 L 226.563 81.125 L 224.313 80.5 L 215.333 79 L 202.625 77.938 L 199.188 77.938 L 195.625 78.125 L 191 78.313 L 186.938 78.688 L 184.438 79.25 L 181.625 80.063 L 179.063 81.063 L 174.313 82.063 L 170.75 82.375 L 167.125 83.313 L 164.125 84.063 L 160.313 85.938 L 156.438 88.125 L 151.875 91.063 L 147 94.063 L 143.563 96.125 L 140.438 98 L 140.063 100.875 L 139.688 103.063 L 138.188 104.75 L 136.875 106.25 L 135.063 107.75 L 133.875 109.625 L 133.563 111.125 L 134 112.125 L 134.875 113.125 L 136.667 114.667 L 138.063 115.938 L 139.25 117.688 L 140.313 119.313 L 140.875 121.438 L 140.625 123.688 L 139.688 125.875 L 141.313 126.188 L 142.552 126.917 L 144.438 127.5 L 145.688 127 L 146.813 125.938 L 148.604 124.505 L 150.688 123.063 L 152.688 122.375 L 155.813 121.813 L 158.313 121.677 L 160.625 121.688 L 163.813 122.125 L 166.5 122.875 L 169.375 123.813 L 170.938 124.938 C 170.383 125.799 170.39 124.747 170.875 124.938 C 171.36 125.128 170.032 124.667 170.875 124.938 C 171.276 125.066 171.577 126.584 172.063 126.75 C 172.315 126.836 172.465 128.084 172.375 128.5 C 172.285 128.916 171.954 128.499 172.313 128.563 L 171.271 130.277 L 169.625 131.563 L 168.688 133.188 Z "
       fill="rgb(189,192,187)"
       vector-effect="non-scaling-stroke"
       stroke-width="2"
       stroke="rgb(255,255,255)"
       stroke-linejoin="miter"
       stroke-linecap="square"
       stroke-miterlimit="3"
       id="lara" />
    <path
       d=" M 140.5 97.875 L 142.086 96.559 L 150.667 92 L 162 85.333 L 172.333 80.667 L 183 79.667 L 195 77.333 L 202.375 77.75 L 208.667 78.333 L 216.438 79.125 L 221.375 80 L 225.25 80.875 L 228.75 81.625 L 230.625 79.938 L 232.667 78.667 L 234.688 77.5 L 236.5 76.75 L 238.438 76.625 L 240.5 77.063 L 242.438 78.063 L 244.375 79.188 L 246.188 80.875 L 247.875 82.563 L 249.5 83.813 L 251.625 84.25 L 254.5 84.25 L 256.13 84.285 L 257.438 84.125 L 257.063 82.75 L 256.289 81.325 L 256.125 79.625 L 255.75 78.25 L 256.25 76.875 L 257.813 75.938 L 259.25 75.063 L 261.688 74.188 L 263.625 73.25 L 264.312 72.458 L 264.938 71.5 L 264.438 70.438 L 262.875 69.125 L 260.875 68.313 L 258.875 67.813 L 256.938 65.563 L 255.688 63.438 L 255.438 61.75 L 254.375 59.688 L 253.5 58.125 L 252 56.667 L 250.313 54.938 L 247.625 52.938 L 243 50.667 L 229.667 45 L 217 41.667 L 209.612 40.586 L 207 40.063 L 203.333 39.667 L 201.188 39.625 L 197.688 40.313 L 195 41.75 L 193.188 42.313 L 191.25 41.5 L 189.333 39.667 L 187.688 36.5 L 186.75 32.5 L 185.688 27.063 L 184.875 23.625 L 184.125 20.938 L 183 17.875 L 181.563 15.25 L 180.125 12.875 L 178.875 11.688 L 177.5 10.75 L 175.563 10.375 L 173 10.188 L 170.938 10.125 L 169 10.667 L 166.875 11.563 L 164.688 12.75 L 162.688 14.25 L 161.125 16.125 L 159.688 18.063 L 158.438 20.438 L 157.375 22.563 L 157.063 24.5 C 156.964 25.058 157.259 26.253 158.625 27.75 C 159.019 28.182 159.423 28.742 159.938 29.25 L 160.75 30.813 L 161.188 32.125 L 161.375 34.063 L 161.188 36.125 L 161.438 37.875 L 161.75 39.5 C 162.036 39.776 162 40.139 162.375 40.5 C 162.75 40.861 163.474 40.553 163.938 41 L 166.5 41 L 169.063 40.25 L 172.125 38.875 L 175.625 38.25 L 178.563 38.063 L 180.125 38.563 L 181.188 39.563 L 181.875 40.563 L 182.283 42.562 L 182.25 44.5 L 181.75 45.875 L 180.375 46.5 C 179.59 46.194 178.722 46.056 177.938 45.75 C 177.153 45.444 176.451 44.972 175.667 44.667 L 174.438 43.563 L 172.75 43 L 170.875 42.875 L 169 43.375 L 167.313 44.5 L 165.875 46.063 L 163.5 48.375 L 161.583 49.854 L 159.667 51.333 L 155.375 53 L 145.063 55.375 L 138.375 57.125 L 130.875 59.688 L 125.125 61.875 L 118.688 64.25 L 116.375 65.688 L 114.625 66.813 L 113.75 67.625 L 114.97 69.018 L 116.813 70.563 L 118.5 72.938 L 120.75 76.75 L 122.25 79.438 L 123.333 83.333 L 124.063 86.125 L 125.698 88.562 L 128.313 90.438 L 131.49 92.385 L 135.75 93.938 C 137.482 94.823 139.408 96.284 140.5 97.875 Z "
       fill="rgb(189,192,187)"
       vector-effect="non-scaling-stroke"
       stroke-width="2"
       stroke="rgb(255,255,255)"
       stroke-linejoin="miter"
       stroke-linecap="square"
       stroke-miterlimit="3"
       id="falcon" />
    <path
       d=" M 119.688 146.563 L 117.625 147.813 L 114.813 150.313 L 115.938 151.25 L 117.563 152.313 L 119.563 153.563 L 121.375 155.188 L 122.438 157.25 L 123.313 157.438 L 126.563 156.438 L 128.625 155.188 L 130.188 154.813 L 131.438 155.5 L 132.063 157.063 L 133.688 159 L 135.563 160.688 L 138.75 161.938 L 142.333 163 L 145.75 163.188 L 149 163 L 152.563 161.875 L 156.188 161.5 L 159 161.667 L 161.75 162.125 L 164.313 161.875 L 166.375 161.25 L 168.375 160 L 169.875 158.75 L 171.313 157.5 L 172.375 155.75 L 172.75 153.313 L 172.625 150.75 L 172.188 147.563 L 170.938 144.188 L 169.979 140.608 L 168.938 138 L 168 136 L 168.188 134.188 L 169.125 132.875 L 170.5 130.813 L 171.813 129.688 L 172.438 127.813 L 172.188 126.063 L 171.188 124.813 L 169.625 123.938 L 167.743 123.566 L 165.688 122.625 L 162.781 122.031 L 158.563 122.063 C 157.343 122.07 156.349 122.244 155.375 122.25 C 154.164 122.258 153.144 122.37 152.313 122.375 L 150.688 123.063 L 148.75 124.188 L 147.125 125.625 L 145.125 127.313 C 144.668 127.312 144.273 127.804 143.938 127.813 C 142.659 127.847 142.147 127.379 141.504 126.675 L 140.063 126.25 L 139 126.563 L 137.688 128.313 L 136 130.333 L 134.063 132.688 L 132.063 134.313 L 130 134.5 L 128.203 133.906 L 126 133.438 L 122.813 132.125 L 121.625 131.188 L 120.375 130.313 L 119.563 129.25 L 118.438 129.438 L 118 130.375 L 119.25 132.875 L 119.725 135.415 L 120.563 138.563 L 121.25 141.375 L 121.313 143.563 L 121 145.438 L 119.688 146.563 Z "
       fill="rgb(189,192,187)"
       vector-effect="non-scaling-stroke"
       stroke-width="2"
       stroke="rgb(255,255,255)"
       stroke-linejoin="miter"
       stroke-linecap="square"
       stroke-miterlimit="3"
       id="trujillo" />
    <path
       d=" M 103.75 216.438 L 103.313 218.438 L 104 219.813 L 105.563 219.375 L 107.125 217.875 L 113 213.333 L 121.75 206.688 C 122.25 205.743 123.75 204.882 124.25 203.938 C 124.75 202.993 125.167 202.278 125.667 201.333 L 126 199.5 L 125.875 197.5 L 124.938 195.188 L 124.25 192.938 L 124.25 190.688 L 124.875 188 L 126.492 185.431 L 129 182.333 L 132.313 178.25 L 135.188 175.25 L 138.471 172.467 L 141.875 170.5 L 144.938 168.438 L 147 166.125 L 148.125 164.313 L 148.5 163.063 L 145 163.313 L 141.333 163 L 138.875 162.188 L 136.625 161.188 L 134.667 159.667 L 132.656 157.656 L 131.438 156.25 L 130.375 155 L 128.75 154.938 L 126.875 156.125 L 123.938 157.375 L 121 159.375 L 118.125 161.563 L 115.688 163.25 L 113.313 164.875 L 110.197 166.255 L 107.813 166.188 L 104.813 167.188 L 101.875 168.938 L 99.25 170.875 L 96.333 174 L 94.063 175.438 L 92.063 177 C 91.686 177.728 90.533 178.572 89.25 179.313 C 88.393 179.807 87.931 180.199 85.938 180.688 L 87.5 182.125 L 88.563 183.313 L 89.188 185.063 L 88.77 186.42 L 87.5 188.25 L 86.25 189.625 L 85.375 191.438 L 85.063 192.75 L 85.125 194.75 L 84.188 196.75 L 83.5 198.063 L 83.563 199.438 L 84.375 200.5 L 86.063 201.375 L 89.438 202.563 L 91.25 203.063 L 93.188 204.5 L 95.875 206.125 L 98.667 208.333 L 101.75 211.938 L 103 214.333 L 103.75 216.438 Z "
       fill="rgb(189,192,187)"
       vector-effect="non-scaling-stroke"
       stroke-width="2"
       stroke="rgb(255,255,255)"
       stroke-linejoin="miter"
       stroke-linecap="square"
       stroke-miterlimit="3"
       id="merida" />
    <path
       d=" M 52.813 233.875 L 53.625 235.75 L 55.188 237.75 L 57.188 238.375 L 59.438 238.75 L 61.25 238.438 L 65.125 238 L 68.667 238 L 71.583 239.219 L 74.5 240.438 L 77.333 241 L 79.25 240.375 L 81.813 239.125 L 84.875 237.063 L 87.5 234.938 L 90.063 234 L 92.063 233.563 L 94.625 234.375 L 97.313 234.813 L 99.688 234.688 L 101.688 233.938 L 103.438 232.5 C 103.091 230.377 103.435 228.752 103.563 227.313 C 103.69 225.873 103.603 224.618 103.75 223.438 L 103.46 220.163 L 102.313 213.375 L 100.625 210.563 L 98.313 207.813 L 95.813 205.5 L 93.449 204.282 L 90.875 203.063 L 88.188 202 L 85.621 201.229 L 83.938 200.25 L 83.688 198.813 L 84.063 196.563 L 84.75 193.688 C 85.112 193 85.107 192.386 85.25 191.75 C 85.393 191.114 86.081 190.309 86.375 189.75 C 86.88 188.791 88.261 188.104 88.667 187.333 C 89.053 185.992 89.174 184.933 89 184.125 L 88.25 182.313 L 86.625 181.563 L 84.75 180.563 L 83 181.063 L 81.25 181.75 L 79.25 184.188 L 76.438 186.875 L 72.125 189.375 L 67.938 191 L 64.5 190.625 L 61.625 189.188 L 60.25 191.063 L 58.438 193.125 L 56.5 194.313 L 57.375 197.563 L 58.563 199.813 L 59.25 202.375 L 58.938 203.75 L 57.125 205.563 L 54.688 207.5 L 52.25 209.438 L 50.75 210.813 L 50.625 212.875 L 51 214.875 L 51.813 218.375 L 51.875 221.063 L 52 225.438 L 52.411 228.935 L 52.313 232 L 52.813 233.875 Z "
       fill="rgb(189,192,187)"
       vector-effect="non-scaling-stroke"
       stroke-width="2"
       stroke="rgb(255,255,255)"
       stroke-linejoin="miter"
       stroke-linecap="square"
       stroke-miterlimit="3"
       id="tachira" />
    <path
       d=" M 108.305 33.03 L 109.438 31.438 L 110 29.813 L 108.625 28.75 L 107.313 28 L 105.625 27.813 L 103.625 27.938 L 101.688 28.25 L 95.688 29.625 L 91.75 30.438 L 83.875 31.313 L 80.667 32 L 78.375 33.313 L 76.125 35 L 73.938 37.438 L 72.625 39.375 L 70.625 42.313 L 69.25 45.188 L 67.875 47.75 L 66.5 51.25 L 65.75 53.438 L 64.563 55.75 L 63.188 57.938 L 59.165 58.346 L 56 58.667 L 54.063 60.063 L 52.5 61.938 L 51.625 64.063 L 51.531 65.469 L 51.438 66.875 L 50.505 67.913 L 49.572 68.952 L 44.625 71.875 L 42.813 73.063 L 41.375 74.75 L 39.875 77.438 L 39 81 L 38.438 84.625 L 36.875 87.125 L 34.25 89.25 L 32.563 90.938 L 31.667 93.333 L 31.416 101.368 L 31.313 103.375 L 30.157 104.963 L 28.912 105.981 L 27.875 107.313 L 28.77 108.838 L 30.667 112 L 29.188 115.438 L 26.688 120.938 L 22.563 128.688 L 10.875 147.063 L 10.333 149 L 10.188 150.375 L 10.625 152.625 L 11.667 155.333 L 13.625 156.625 L 15.375 156.625 L 17.333 156.667 L 19.438 156.125 L 20.438 155.438 L 21.802 153.943 L 24.375 152.375 L 26.438 151.875 L 27.688 152.563 L 28.375 153.5 L 28.75 154.5 L 29.374 156.938 L 30.313 157.938 L 31.689 158.008 L 35.375 157.125 L 36.938 158.25 L 37.645 160.364 L 38.125 164 L 39.375 167.313 L 41 171 L 42.333 181.667 L 45.438 185.313 L 47.938 187.25 L 49.5 189 L 50.25 191 L 51.563 192.688 L 53.5 194.063 L 55.625 193.75 L 58.063 192.75 L 59.438 191.188 L 60.563 189.688 L 62 189 L 64.125 189.313 L 66.125 190.313 L 67.938 190.875 L 70.375 189.5 L 73.125 188.188 L 75.813 186.813 C 76.541 186.344 77.68 185.751 78.75 185.063 C 79.536 184.557 79.902 183.87 80.813 183.25 C 81.335 182.894 81.717 182.36 82.438 182 C 82.974 181.732 84.07 181.067 84.563 180.75 L 87.813 179.375 C 89.717 178.872 90.935 177.48 91.813 177.5 L 95.25 174.625 L 98.375 171.5 L 101.25 169.438 L 104 167.313 L 106.879 166.398 L 110.25 165.875 L 112.375 164.813 L 114.881 163.459 L 117.063 161.938 L 119.563 160.313 L 121.688 158.313 L 122.75 157.25 L 121.875 155.75 L 120.667 154.667 L 118.938 153.5 L 117.438 152.313 L 115.688 151.625 L 113.75 150.938 L 112.188 152.688 L 109.938 154.563 L 106.313 156.75 C 105.374 157.076 104.215 157.493 102.938 157.938 C 101.66 158.382 99.867 158.5 98.25 159.063 L 94.375 160.188 L 90.813 160.313 L 88.909 159.316 L 87.875 158.438 L 87.895 156.613 L 87.813 154.563 L 88.333 152.667 L 89.167 149.833 C 89.833 148.667 90.184 148.17 90.063 147.438 L 90.063 145.688 L 89.75 144.125 L 88.75 142.813 L 87.25 141.563 L 85.333 140.667 L 80.85 138.425 L 79.375 136.813 L 77.625 134 L 76.188 131.125 L 75.25 127.375 L 74.75 123.063 L 74.563 120.313 L 75 117 L 76.25 114.625 L 77.563 112.438 L 79.813 109.875 L 82 107.125 L 84.438 104.063 L 86.063 101.688 L 87.313 99.75 L 89.75 97.875 L 92.542 96.771 L 94.313 96.5 L 95.333 95.667 L 95.611 91.923 L 95.125 90.063 L 95.25 88 L 95.438 86.188 L 95.375 84.25 L 94.5 82.688 L 93.75 80.188 L 93.667 77.333 L 92.438 75.313 L 91.313 73.5 L 91.667 71.667 L 91.688 70.063 L 91.063 68.5 L 91.75 66.375 L 91.313 64.563 L 84.667 59 L 83 57.125 L 81.75 55.125 L 80.75 53.188 L 80.188 50.688 L 80.333 48.667 L 80.938 45.938 L 81.875 44.313 L 83.333 42.667 L 86.125 40.625 L 89.313 39.625 L 92 38.813 C 93.682 38.774 94.906 38.344 96.563 38 C 97.678 37.768 99.234 37.708 100.333 37.333 L 106.188 34.688 L 108.305 33.03 Z "
       fill="rgb(189,192,187)"
       vector-effect="non-scaling-stroke"
       stroke-width="2"
       stroke="rgb(255,255,255)"
       stroke-linejoin="miter"
       stroke-linecap="square"
       stroke-miterlimit="3"
       id="zulia1" />
    <path
       d=" M 118.688 128.5 L 120.125 129.875 L 121.563 131.25 L 123.688 132.875 L 125.51 133.604 L 127.333 134.333 L 129.188 134.333 L 132.188 134.333 L 134.375 133.063 L 135.688 131.625 L 136.688 130 L 138.313 128.375 L 139.153 125.742 L 139.875 123.313 L 140.063 121.688 L 140.188 119.938 L 139.125 118 L 138.313 116.5 L 136.563 114.813 L 134.563 113.125 L 133.25 111.813 L 133 110.667 L 133.813 108.875 L 135.125 107.563 L 136.313 106.25 L 138.563 104.25 Q 139.823 102.01 140.125 99.75 L 140.188 98.5 L 139.075 96.929 L 137.125 94.625 L 134.438 93.625 L 128.375 90.938 L 127.076 90.048 L 125.448 88.369 L 123.938 86.813 L 123.188 85.438 L 123 83.188 L 122.637 81.098 L 121.75 78.25 L 121 77.156 L 120.125 75.25 L 118 72.375 L 115.813 70.25 L 113.813 68.563 L 111.75 67.125 L 109.25 66.688 L 107 66.667 L 104.375 67.438 L 102.333 69 L 101.375 71.125 L 101 73.313 L 101 75.667 L 101.563 78.375 L 101.5 80.063 L 101.406 81.458 L 100.813 82.813 L 100.25 83.5 L 99.813 84.688 C 99.593 85.519 100.521 87.103 100.688 89.188 C 100.84 91.091 99.658 93.371 100.125 96.313 L 102.188 98.563 L 104.063 101.25 L 104.667 103.667 L 111 111 L 116.667 121.667 L 118.688 128.5 Z "
       fill="rgb(189,192,187)"
       vector-effect="non-scaling-stroke"
       stroke-width="2"
       stroke="rgb(255,255,255)"
       stroke-linejoin="miter"
       stroke-linecap="square"
       stroke-miterlimit="3"
       id="zulia2" />
  </g>
</svg>
